<?xml version="1.0" encoding="UTF-8" standalone="no"?><!-- Generator: Gravit.io --><svg xmlns="http://www.w3.org/2000/svg" xmlns:xlink="http://www.w3.org/1999/xlink" style="isolation:isolate" viewBox="0 0 691.35 722.7" width="691.35pt" height="722.7pt"><defs><clipPath id="_clipPath_2zTtBKRu3mgOd2L2XoaLNEukT1Pe6Cn3"><rect width="691.35" height="722.7"/></clipPath></defs><g clip-path="url(#_clipPath_2zTtBKRu3mgOd2L2XoaLNEukT1Pe6Cn3)"><g><rect x="534.312" y="452.1" width="127.338" height="85.8" transform="matrix(1,0,0,1,0,0)" fill="rgb(17,166,93)"/><path d=" M 689.371 209.711 C 632.032 85.932 506.648 0 361.35 0 C 161.916 0 0 161.895 0 361.305 C 0 560.715 161.916 722.61 361.35 722.61 C 394.931 722.61 459.673 722.812 460.35 722.61 L 460.35 353.056 C 459.181 353.009 612.769 353.056 691.35 353.056 C 691.35 325.01 691.144 284.521 691.144 270.773 C 664.194 270.773 398.475 270.806 377.025 270.806 C 377.025 349.996 377.025 657.506 377.025 640.406 C 369.88 640.406 365.101 640.121 361.383 640.121 C 361.366 640.121 361.366 640.121 361.35 640.121 L 361.35 640.121 L 361.317 640.121 C 342.441 640.121 323.598 638.223 305.102 634.445 C 287.216 630.783 269.742 625.355 252.928 618.244 C 219.78 604.188 189.667 583.879 164.224 558.406 C 138.748 532.966 118.437 502.858 104.379 469.713 C 97.268 452.902 91.839 435.431 88.176 417.547 C 84.398 399.036 82.484 380.195 82.5 361.305 C 82.484 342.415 84.398 323.558 88.176 305.047 C 91.839 287.18 97.268 269.709 104.379 252.897 C 118.437 219.753 138.748 189.644 164.224 164.204 C 189.667 138.731 219.78 118.422 252.928 104.366 C 269.742 97.255 287.216 91.828 305.102 88.165 C 323.615 84.387 342.458 82.473 361.35 82.49 C 380.242 82.473 399.085 84.387 417.598 88.165 C 435.484 91.828 452.958 97.255 469.771 104.366 C 502.92 118.422 533.032 138.731 558.476 164.204 C 572.365 178.074 584.719 193.331 595.362 209.711 L 689.371 209.711 L 689.371 209.711 Z " fill="rgb(38,166,222)"/></g></g></svg>