<?xml version="1.0" encoding="UTF-8" standalone="no"?><!-- Generator: Gravit.io --><svg xmlns="http://www.w3.org/2000/svg" xmlns:xlink="http://www.w3.org/1999/xlink" style="isolation:isolate" viewBox="0 0 419 438" width="419pt" height="438pt"><defs><clipPath id="_clipPath_sBN1Uk82tdwiKHsDPLeqMpg2Vmxf0Dho"><rect width="419" height="438"/></clipPath></defs><g clip-path="url(#_clipPath_sBN1Uk82tdwiKHsDPLeqMpg2Vmxf0Dho)"><rect x="323.825" y="274" width="77.175" height="52" transform="matrix(1,0,0,1,0,0)" fill="rgb(17,166,93)"/><path d=" M 417.8 127.098 C 383.049 52.08 307.059 0 219 0 C 98.131 0 0 98.118 0 218.973 C 0 339.827 98.131 437.946 219 437.946 C 239.352 437.946 278.589 438.068 279 437.946 L 279 213.973 C 278.291 213.945 371.375 213.973 419 213.973 C 419 196.976 418.875 172.437 418.875 164.105 C 402.542 164.105 241.5 164.125 228.5 164.125 C 228.5 212.119 228.5 398.488 228.5 388.125 C 224.17 388.125 221.273 387.952 219.02 387.952 C 219.01 387.952 219.01 387.952 219 387.952 L 219 387.952 L 218.98 387.952 C 207.54 387.952 196.12 386.802 184.91 384.512 C 174.07 382.293 163.48 379.003 153.29 374.694 C 133.2 366.175 114.95 353.866 99.53 338.428 C 84.09 323.01 71.78 304.762 63.26 284.675 C 58.95 274.486 55.66 263.897 53.44 253.059 C 51.15 241.84 49.99 230.421 50 218.973 C 49.99 207.524 51.15 196.096 53.44 184.877 C 55.66 174.048 58.95 163.46 63.26 153.271 C 71.78 133.183 84.09 114.936 99.53 99.518 C 114.95 84.08 133.2 71.771 153.29 63.252 C 163.48 58.943 174.07 55.653 184.91 53.433 C 196.13 51.144 207.55 49.984 219 49.994 C 230.45 49.984 241.87 51.144 253.09 53.433 C 263.93 55.653 274.52 58.943 284.71 63.252 C 304.8 71.771 323.05 84.08 338.47 99.518 C 346.888 107.923 354.375 117.17 360.825 127.098 L 417.8 127.098 L 417.8 127.098 Z " fill="rgb(38,166,222)"/></g></svg>