<?xml version="1.0" encoding="UTF-8" standalone="no"?><!-- Generator: Gravit.io --><svg xmlns="http://www.w3.org/2000/svg" xmlns:xlink="http://www.w3.org/1999/xlink" style="isolation:isolate" viewBox="0 0 128 128" width="128pt" height="128pt"><defs><clipPath id="_clipPath_oWRwMhTEuz8h5PaiCXhWofaNbLK3DzKE"><rect width="128" height="128"/></clipPath></defs><g clip-path="url(#_clipPath_oWRwMhTEuz8h5PaiCXhWofaNbLK3DzKE)"><g><rect x="97.41" y="80.073" width="22.553" height="15.196" transform="matrix(1,0,0,1,0,0)" fill="rgb(17,166,93)"/><path d=" M 124.873 37.143 C 114.718 15.22 92.511 0 66.776 0 C 31.454 0 2.776 28.674 2.776 63.992 C 2.776 99.31 31.454 127.984 66.776 127.984 C 72.724 127.984 84.191 128.02 84.311 127.984 L 84.311 62.531 C 84.103 62.523 111.306 62.531 125.224 62.531 C 125.224 57.564 125.187 50.393 125.187 47.958 C 120.414 47.958 73.352 47.963 69.553 47.963 C 69.553 61.989 69.553 116.453 69.553 113.425 C 68.287 113.425 67.441 113.374 66.782 113.374 C 66.779 113.374 66.779 113.374 66.776 113.374 L 66.776 113.374 L 66.77 113.374 C 63.427 113.374 60.09 113.038 56.814 112.369 C 53.646 111.72 50.551 110.759 47.573 109.499 C 41.702 107.01 36.369 103.413 31.863 98.901 C 27.351 94.396 23.753 89.063 21.263 83.193 C 20.004 80.215 19.042 77.121 18.393 73.953 C 17.724 70.675 17.385 67.338 17.388 63.992 C 17.385 60.646 17.724 57.307 18.393 54.028 C 19.042 50.863 20.004 47.769 21.263 44.792 C 23.753 38.921 27.351 33.589 31.863 29.083 C 36.369 24.571 41.702 20.974 47.573 18.485 C 50.551 17.225 53.646 16.264 56.814 15.615 C 60.093 14.946 63.43 14.607 66.776 14.61 C 70.122 14.607 73.46 14.946 76.739 15.615 C 79.906 16.264 83.001 17.225 85.979 18.485 C 91.85 20.974 97.184 24.571 101.69 29.083 C 104.15 31.539 106.338 34.242 108.223 37.143 L 124.873 37.143 L 124.873 37.143 Z " fill="rgb(38,166,222)"/></g></g></svg>