<?xml version="1.0" encoding="UTF-8" standalone="no"?><!-- Generator: Gravit.io --><svg xmlns="http://www.w3.org/2000/svg" xmlns:xlink="http://www.w3.org/1999/xlink" style="isolation:isolate" viewBox="0 0 256 256" width="256pt" height="256pt"><defs><clipPath id="_clipPath_vSi8GJla7mdLrj1BKUzgRIyXjmgyt4gs"><rect width="256" height="256"/></clipPath></defs><g clip-path="url(#_clipPath_vSi8GJla7mdLrj1BKUzgRIyXjmgyt4gs)"><g><rect x="194.82" y="160.146" width="45.107" height="30.393" transform="matrix(1,0,0,1,0,0)" fill="rgb(17,166,93)"/><path d=" M 249.746 74.285 C 229.435 30.439 185.021 0 133.553 0 C 62.907 0 5.553 57.348 5.553 127.984 C 5.553 198.621 62.907 255.968 133.553 255.968 C 145.448 255.968 168.381 256.04 168.621 255.968 L 168.621 125.062 C 168.207 125.046 222.612 125.062 250.447 125.062 C 250.447 115.127 250.374 100.785 250.374 95.915 C 240.828 95.915 146.703 95.927 139.105 95.927 C 139.105 123.978 139.105 232.906 139.105 226.849 C 136.574 226.849 134.881 226.748 133.564 226.748 C 133.558 226.748 133.558 226.748 133.553 226.748 L 133.553 226.748 L 133.541 226.748 C 126.854 226.748 120.18 226.076 113.628 224.738 C 107.292 223.44 101.102 221.518 95.147 218.999 C 83.405 214.02 72.738 206.826 63.725 197.803 C 54.701 188.791 47.506 178.126 42.526 166.385 C 40.007 160.43 38.084 154.241 36.787 147.906 C 35.448 141.349 34.77 134.676 34.776 127.984 C 34.77 121.293 35.448 114.613 36.787 108.056 C 38.084 101.727 40.007 95.538 42.526 89.583 C 47.506 77.842 54.701 67.177 63.725 58.166 C 72.738 49.142 83.405 41.948 95.147 36.969 C 101.102 34.451 107.292 32.528 113.628 31.23 C 120.186 29.892 126.86 29.214 133.553 29.22 C 140.245 29.214 146.919 29.892 153.477 31.23 C 159.813 32.528 166.003 34.451 171.958 36.969 C 183.7 41.948 194.367 49.142 203.38 58.166 C 208.3 63.079 212.676 68.483 216.446 74.285 L 249.746 74.285 L 249.746 74.285 Z " fill="rgb(38,166,222)"/></g></g></svg>