<?xml version="1.0" encoding="UTF-8" standalone="no"?><!-- Generator: Gravit.io --><svg xmlns="http://www.w3.org/2000/svg" xmlns:xlink="http://www.w3.org/1999/xlink" style="isolation:isolate" viewBox="0 0 32 32" width="32pt" height="32pt"><defs><clipPath id="_clipPath_bPtBPqPoHZ3LmqK78C3qMzsih93HC8Qq"><rect width="32" height="32"/></clipPath></defs><g clip-path="url(#_clipPath_bPtBPqPoHZ3LmqK78C3qMzsih93HC8Qq)"><g><rect x="24.353" y="20.018" width="5.638" height="3.799" transform="matrix(1,0,0,1,0,0)" fill="rgb(17,166,93)"/><path d=" M 31.218 9.286 C 28.679 3.805 23.128 0 16.694 0 C 7.863 0 0.694 7.168 0.694 15.998 C 0.694 24.828 7.863 31.996 16.694 31.996 C 18.181 31.996 21.048 32.005 21.078 31.996 L 21.078 15.633 C 21.026 15.631 27.826 15.633 31.306 15.633 C 31.306 14.391 31.297 12.598 31.297 11.989 C 30.104 11.989 18.338 11.991 17.388 11.991 C 17.388 15.497 17.388 29.113 17.388 28.356 C 17.072 28.356 16.86 28.344 16.696 28.344 C 16.695 28.344 16.695 28.344 16.694 28.344 L 16.694 28.344 L 16.693 28.344 C 15.857 28.344 15.022 28.26 14.203 28.092 C 13.412 27.93 12.638 27.69 11.893 27.375 C 10.426 26.752 9.092 25.853 7.966 24.725 C 6.838 23.599 5.938 22.266 5.316 20.798 C 5.001 20.054 4.761 19.28 4.598 18.488 C 4.431 17.669 4.346 16.834 4.347 15.998 C 4.346 15.162 4.431 14.327 4.598 13.507 C 4.761 12.716 5.001 11.942 5.316 11.198 C 5.938 9.73 6.838 8.397 7.966 7.271 C 9.092 6.143 10.426 5.244 11.893 4.621 C 12.638 4.306 13.412 4.066 14.203 3.904 C 15.023 3.737 15.858 3.652 16.694 3.653 C 17.531 3.652 18.365 3.737 19.185 3.904 C 19.977 4.066 20.75 4.306 21.495 4.621 C 22.963 5.244 24.296 6.143 25.422 7.271 C 26.037 7.885 26.584 8.56 27.056 9.286 L 31.218 9.286 L 31.218 9.286 Z " fill="rgb(38,166,222)"/></g></g></svg>