<?xml version="1.0" encoding="UTF-8" standalone="no"?><!-- Generator: Gravit.io --><svg xmlns="http://www.w3.org/2000/svg" xmlns:xlink="http://www.w3.org/1999/xlink" style="isolation:isolate" viewBox="0 0 512 512" width="512pt" height="512pt"><defs><clipPath id="_clipPath_DDkHAU8p0eZz87qkBbvmdpJqvg4CFTXz"><rect width="512" height="512"/></clipPath></defs><g clip-path="url(#_clipPath_DDkHAU8p0eZz87qkBbvmdpJqvg4CFTXz)"><g><rect x="389.64" y="320.292" width="90.213" height="60.785" transform="matrix(1,0,0,1,0,0)" fill="rgb(17,166,93)"/><path d=" M 499.493 148.571 C 458.871 60.879 370.042 0 267.105 0 C 125.815 0 11.105 114.696 11.105 255.968 C 11.105 397.241 125.815 511.937 267.105 511.937 C 290.896 511.937 336.762 512.079 337.242 511.937 L 337.242 250.124 C 336.414 250.091 445.224 250.124 500.895 250.124 C 500.895 230.255 500.749 201.57 500.749 191.83 C 481.656 191.83 293.406 191.854 278.21 191.854 C 278.21 247.957 278.21 465.813 278.21 453.699 C 273.148 453.699 269.762 453.496 267.128 453.496 C 267.117 453.496 267.117 453.496 267.105 453.496 L 267.105 453.496 L 267.082 453.496 C 253.709 453.496 240.359 452.152 227.256 449.476 C 214.584 446.881 202.205 443.035 190.293 437.998 C 166.809 428.04 145.476 413.652 127.451 395.605 C 109.402 377.582 95.012 356.252 85.053 332.77 C 80.015 320.86 76.169 308.483 73.574 295.813 C 70.897 282.699 69.541 269.351 69.553 255.968 C 69.541 242.585 70.897 229.226 73.574 216.112 C 76.169 203.454 80.015 191.076 85.053 179.166 C 95.012 155.685 109.402 134.354 127.451 116.331 C 145.476 98.285 166.809 83.897 190.293 73.939 C 202.205 68.901 214.584 65.056 227.256 62.461 C 240.371 59.784 253.721 58.429 267.105 58.44 C 280.489 58.429 293.839 59.784 306.955 62.461 C 319.626 65.056 332.005 68.901 343.917 73.939 C 367.401 83.897 388.734 98.285 406.759 116.331 C 416.599 126.157 425.352 136.966 432.892 148.571 L 499.493 148.571 L 499.493 148.571 Z " fill="rgb(38,166,222)"/></g></g></svg>