<?xml version="1.0" encoding="UTF-8" standalone="no"?><!-- Generator: Gravit.io --><svg xmlns="http://www.w3.org/2000/svg" xmlns:xlink="http://www.w3.org/1999/xlink" style="isolation:isolate" viewBox="0 0 64 64" width="64pt" height="64pt"><defs><clipPath id="_clipPath_gqDYsaiQNJ0PVOqWDfRgJC5Y5yU89AuM"><rect width="64" height="64"/></clipPath></defs><g clip-path="url(#_clipPath_gqDYsaiQNJ0PVOqWDfRgJC5Y5yU89AuM)"><g><rect x="48.705" y="40.037" width="11.277" height="7.598" transform="matrix(1,0,0,1,0,0)" fill="rgb(17,166,93)"/><path d=" M 62.437 18.571 C 57.359 7.61 46.255 0 33.388 0 C 15.727 0 1.388 14.337 1.388 31.996 C 1.388 49.655 15.727 63.992 33.388 63.992 C 36.362 63.992 42.095 64.01 42.155 63.992 L 42.155 31.266 C 42.052 31.261 55.653 31.266 62.612 31.266 C 62.612 28.782 62.594 25.196 62.594 23.979 C 60.207 23.979 36.676 23.982 34.776 23.982 C 34.776 30.995 34.776 58.227 34.776 56.712 C 34.144 56.712 33.72 56.687 33.391 56.687 C 33.39 56.687 33.39 56.687 33.388 56.687 L 33.388 56.687 L 33.385 56.687 C 31.714 56.687 30.045 56.519 28.407 56.184 C 26.823 55.86 25.276 55.379 23.787 54.75 C 20.851 53.505 18.184 51.706 15.931 49.451 C 13.675 47.198 11.877 44.531 10.632 41.596 C 10.002 40.108 9.521 38.56 9.197 36.977 C 8.862 35.337 8.693 33.669 8.694 31.996 C 8.693 30.323 8.862 28.653 9.197 27.014 C 9.521 25.432 10.002 23.885 10.632 22.396 C 11.877 19.461 13.675 16.794 15.931 14.541 C 18.184 12.286 20.851 10.487 23.787 9.242 C 25.276 8.613 26.823 8.132 28.407 7.808 C 30.046 7.473 31.715 7.304 33.388 7.305 C 35.061 7.304 36.73 7.473 38.369 7.808 C 39.953 8.132 41.501 8.613 42.99 9.242 C 45.925 10.487 48.592 12.286 50.845 14.541 C 52.075 15.77 53.169 17.121 54.111 18.571 L 62.437 18.571 L 62.437 18.571 Z " fill="rgb(38,166,222)"/></g></g></svg>